<?xml version="1.0" standalone="no"?>
<!DOCTYPE svg PUBLIC "-//W3C//DTD SVG 20010904//EN"
 "http://www.w3.org/TR/2001/REC-SVG-20010904/DTD/svg10.dtd">
<svg version="1.0" xmlns="http://www.w3.org/2000/svg"
 width="151.000000pt" height="199.000000pt" viewBox="0 0 151.000000 199.000000"
 preserveAspectRatio="xMidYMid meet">

<g transform="translate(0.000000,199.000000) scale(0.100000,-0.100000)"
fill="#000000" stroke="none">
<path d="M565 1975 c-112 -24 -266 -97 -313 -148 -20 -21 -22 -29 -13 -46 16
-29 45 -26 97 10 94 65 247 119 337 119 66 0 99 34 65 68 -15 15 -96 14 -173
-3z"/>
<path d="M813 1984 c-7 -3 -13 -18 -13 -34 0 -32 0 -32 106 -54 132 -27 240
-82 361 -184 54 -45 84 -50 97 -15 21 53 -176 194 -349 252 -90 30 -179 45
-202 35z"/>
<path d="M580 1814 c-117 -25 -300 -130 -300 -173 0 -20 19 -41 36 -41 6 0 41
20 77 44 167 112 347 134 547 67 104 -35 113 -36 130 -16 22 27 2 52 -64 78
-135 55 -294 70 -426 41z"/>
<path d="M1120 1670 c-11 -21 1 -60 19 -60 4 0 38 -27 74 -60 95 -88 175 -223
208 -353 13 -53 28 -70 61 -65 33 4 34 35 2 131 -54 166 -137 291 -252 379
-69 52 -95 59 -112 28z"/>
<path d="M637 1663 c-30 -5 -50 -33 -41 -57 7 -19 -1 -18 109 -21 90 -3 180
-26 266 -70 64 -33 154 -103 189 -149 40 -52 54 -60 81 -46 37 21 23 56 -53
134 -82 82 -169 135 -293 178 -81 27 -198 42 -258 31z"/>
<path d="M419 1578 c-81 -54 -146 -136 -181 -225 -15 -39 -41 -139 -58 -224
-30 -151 -34 -162 -101 -267 -10 -16 -11 -26 -3 -40 20 -32 49 -26 83 17 48
60 70 120 97 259 49 256 100 352 223 422 64 37 81 61 61 85 -21 25 -55 17
-121 -27z"/>
<path d="M171 1545 c-63 -73 -120 -218 -157 -402 -19 -98 -14 -123 27 -123 25
0 32 16 68 171 33 141 77 250 125 306 59 71 -2 117 -63 48z"/>
<path d="M594 1480 c-110 -36 -184 -121 -229 -263 -24 -74 -21 -99 11 -111 26
-10 41 10 64 83 30 93 58 139 108 178 56 42 111 57 192 49 94 -8 190 -58 266
-138 73 -76 107 -132 142 -235 26 -74 29 -78 57 -78 26 0 30 4 33 31 4 38 -35
147 -79 220 -42 69 -128 159 -193 202 -116 75 -259 99 -372 62z"/>
<path d="M647 1314 c-63 -20 -129 -87 -155 -157 -11 -29 -30 -115 -42 -192
-39 -242 -75 -329 -196 -469 -92 -105 -91 -103 -78 -124 21 -32 45 -25 101 30
151 147 210 276 253 553 25 161 41 204 90 249 47 42 94 53 167 37 59 -14 83
-5 83 30 0 48 -130 73 -223 43z"/>
<path d="M1268 1269 c-24 -14 -23 -20 17 -142 60 -183 69 -249 61 -443 -5
-143 -4 -174 9 -184 19 -16 51 -4 60 23 3 12 9 94 12 182 5 129 2 177 -11 245
-23 110 -82 295 -102 315 -18 17 -23 18 -46 4z"/>
<path d="M912 1218 c-19 -19 -15 -34 24 -85 90 -119 134 -256 134 -423 0 -230
-62 -411 -192 -563 -40 -46 -49 -63 -44 -82 10 -41 47 -32 99 24 95 101 161
236 197 399 27 121 27 321 1 424 -35 137 -143 318 -190 318 -9 0 -22 -5 -29
-12z"/>
<path d="M722 1146 c-72 -21 -128 -110 -145 -232 -10 -65 -9 -76 6 -91 13 -13
21 -14 39 -6 19 9 25 23 36 89 16 102 51 158 103 162 47 4 77 -21 118 -99 44
-80 61 -148 61 -236 0 -60 4 -77 21 -94 82 -82 88 166 8 336 -30 65 -87 138
-122 157 -35 19 -89 25 -125 14z"/>
<path d="M331 1031 c-8 -5 -25 -47 -38 -93 -39 -134 -78 -208 -144 -274 -59
-59 -69 -80 -47 -102 24 -24 51 -11 113 52 72 73 111 146 149 280 31 106 32
122 7 136 -23 12 -22 12 -40 1z"/>
<path d="M736 957 c-29 -30 -46 -119 -46 -249 0 -69 -5 -111 -20 -153 -28 -82
-115 -205 -219 -313 -50 -51 -91 -96 -91 -100 0 -24 28 -45 52 -39 57 15 258
258 315 382 32 69 59 196 47 216 -8 14 6 170 16 164 16 -10 32 -137 26 -198
-21 -192 -97 -344 -249 -504 -59 -62 -78 -87 -75 -105 6 -42 47 -35 103 20
167 161 261 332 296 536 29 173 -30 366 -113 366 -10 0 -29 -10 -42 -23z"/>
<path d="M1201 877 c-9 -11 -9 -32 0 -88 17 -111 7 -257 -26 -359 -32 -101
-36 -148 -14 -163 30 -19 47 1 77 95 47 141 56 203 49 341 -7 152 -15 181 -49
185 -13 2 -30 -3 -37 -11z"/>
<path d="M561 728 c-5 -13 -16 -50 -26 -83 -24 -84 -69 -153 -179 -278 -53
-59 -96 -113 -96 -120 0 -19 21 -37 45 -37 25 0 168 157 236 261 52 77 92 188
87 240 -2 29 -7 34 -30 37 -21 3 -30 -2 -37 -20z"/>
<path d="M933 548 c-5 -7 -20 -44 -33 -83 -43 -132 -112 -252 -202 -354 -26
-30 -48 -62 -48 -71 0 -21 20 -40 41 -40 20 0 96 81 151 164 88 128 173 340
152 374 -14 21 -48 27 -61 10z"/>
</g>
</svg>
