<?xml version="1.0" standalone="no"?>
<!DOCTYPE svg PUBLIC "-//W3C//DTD SVG 20010904//EN"
 "http://www.w3.org/TR/2001/REC-SVG-20010904/DTD/svg10.dtd">
<svg version="1.0" xmlns="http://www.w3.org/2000/svg"
 width="500.000000pt" height="500.000000pt" viewBox="0 0 500.000000 500.000000"
 preserveAspectRatio="xMidYMid meet">

<g transform="translate(0.000000,500.000000) scale(0.100000,-0.100000)"
fill="#000000" stroke="none">
<path d="M2315 3995 c-112 -24 -266 -97 -313 -148 -20 -21 -22 -29 -13 -46 16
-29 45 -26 97 10 94 65 247 119 337 119 66 0 99 34 65 68 -15 15 -96 14 -173
-3z"/>
<path d="M2563 4004 c-7 -3 -13 -18 -13 -34 0 -32 0 -32 106 -54 132 -27 240
-82 361 -184 54 -45 84 -50 97 -15 21 53 -176 194 -349 252 -90 30 -179 45
-202 35z"/>
<path d="M2330 3834 c-117 -25 -300 -130 -300 -173 0 -20 19 -41 36 -41 6 0
41 20 77 44 167 112 347 134 547 67 104 -35 113 -36 130 -16 22 27 2 52 -64
78 -135 55 -294 70 -426 41z"/>
<path d="M2870 3690 c-11 -21 1 -60 19 -60 4 0 38 -27 74 -60 95 -88 175 -223
208 -353 13 -53 28 -70 61 -65 33 4 34 35 2 131 -54 166 -137 291 -252 379
-69 52 -95 59 -112 28z"/>
<path d="M2387 3683 c-30 -5 -50 -33 -41 -57 7 -19 -1 -18 109 -21 90 -3 180
-26 266 -70 64 -33 154 -103 189 -149 40 -52 54 -60 81 -46 37 21 23 56 -53
134 -82 82 -169 135 -293 178 -81 27 -198 42 -258 31z"/>
<path d="M2169 3598 c-81 -54 -146 -136 -181 -225 -15 -39 -41 -139 -58 -224
-30 -151 -34 -162 -101 -267 -10 -16 -11 -26 -3 -40 20 -32 49 -26 83 17 48
60 70 120 97 259 49 256 100 352 223 422 64 37 81 61 61 85 -21 25 -55 17
-121 -27z"/>
<path d="M1921 3565 c-63 -73 -120 -218 -157 -402 -19 -98 -14 -123 27 -123
25 0 32 16 68 171 33 141 77 250 125 306 59 71 -2 117 -63 48z"/>
<path d="M2344 3500 c-110 -36 -184 -121 -229 -263 -24 -74 -21 -99 11 -111
26 -10 41 10 64 83 30 93 58 139 108 178 56 42 111 57 192 49 94 -8 190 -58
266 -138 73 -76 107 -132 142 -235 26 -74 29 -78 57 -78 26 0 30 4 33 31 4 38
-35 147 -79 220 -42 69 -128 159 -193 202 -116 75 -259 99 -372 62z"/>
<path d="M2397 3334 c-63 -20 -129 -87 -155 -157 -11 -29 -30 -115 -42 -192
-39 -242 -75 -329 -196 -469 -92 -105 -91 -103 -78 -123 21 -33 45 -26 101 29
151 147 210 276 253 553 25 161 41 204 90 249 47 42 94 53 167 37 59 -14 83
-5 83 30 0 48 -130 73 -223 43z"/>
<path d="M3018 3289 c-24 -14 -23 -20 17 -142 60 -183 69 -249 61 -443 -5
-143 -4 -174 9 -184 19 -16 51 -4 60 23 3 12 9 94 12 182 5 129 2 177 -11 245
-23 110 -82 295 -102 315 -18 17 -23 18 -46 4z"/>
<path d="M2662 3238 c-19 -19 -15 -34 24 -85 90 -119 134 -256 134 -423 0
-230 -62 -411 -192 -563 -40 -46 -49 -63 -44 -82 10 -41 47 -32 99 24 95 101
161 236 197 399 27 121 27 321 1 424 -35 137 -143 318 -190 318 -9 0 -22 -5
-29 -12z"/>
<path d="M2472 3166 c-72 -21 -128 -110 -145 -232 -10 -65 -9 -76 6 -91 13
-13 21 -14 39 -6 19 9 25 23 36 89 16 102 51 158 103 162 47 4 77 -21 118 -99
44 -80 61 -148 61 -236 0 -60 4 -77 21 -94 82 -82 88 166 8 336 -30 65 -87
138 -122 157 -35 19 -89 25 -125 14z"/>
<path d="M2081 3051 c-8 -5 -25 -47 -38 -93 -39 -134 -78 -208 -144 -274 -59
-59 -69 -80 -47 -102 24 -24 51 -11 113 52 72 73 111 146 149 280 31 106 32
122 7 136 -23 12 -22 12 -40 1z"/>
<path d="M2486 2977 c-29 -30 -46 -119 -46 -249 0 -69 -5 -111 -20 -153 -28
-82 -115 -205 -219 -313 -50 -51 -91 -96 -91 -100 0 -24 28 -45 52 -39 57 15
258 258 315 382 32 69 59 196 47 216 -8 14 6 170 16 164 16 -10 32 -137 26
-198 -21 -192 -97 -344 -249 -504 -59 -62 -78 -87 -75 -105 6 -42 47 -35 103
20 167 161 261 332 296 536 29 173 -30 366 -113 366 -10 0 -29 -10 -42 -23z"/>
<path d="M2951 2897 c-9 -11 -9 -32 0 -88 17 -111 7 -257 -26 -359 -32 -101
-36 -148 -14 -163 30 -19 47 1 77 95 47 141 56 203 49 341 -7 152 -15 181 -49
185 -13 2 -30 -3 -37 -11z"/>
<path d="M2311 2748 c-5 -13 -16 -50 -26 -83 -24 -84 -69 -153 -179 -278 -53
-59 -96 -113 -96 -120 0 -19 21 -37 45 -37 25 0 168 157 236 261 52 77 92 188
87 240 -2 29 -7 34 -30 37 -21 3 -30 -2 -37 -20z"/>
<path d="M2683 2568 c-5 -7 -20 -44 -33 -83 -43 -132 -112 -252 -202 -354 -26
-30 -48 -62 -48 -71 0 -21 20 -40 41 -40 20 0 96 81 151 164 88 128 173 340
152 374 -14 21 -48 27 -61 10z"/>
<path d="M3275 1851 c-61 -17 -87 -32 -134 -76 -65 -61 -94 -128 -94 -220 -1
-134 59 -237 170 -291 73 -36 192 -39 263 -7 119 53 181 152 181 288 0 176
-115 302 -285 310 -39 3 -84 0 -101 -4z m211 -96 c133 -82 147 -288 26 -397
-110 -99 -295 -69 -365 60 -70 131 -27 290 96 348 75 36 174 31 243 -11z"/>
<path d="M3955 1851 c-108 -28 -167 -120 -131 -204 21 -52 71 -83 176 -112
191 -53 230 -75 230 -129 0 -75 -66 -111 -190 -104 -93 5 -143 31 -162 84 -10
29 -16 34 -45 34 -40 0 -43 -21 -13 -80 43 -85 193 -129 324 -97 37 9 80 26
95 37 59 41 78 136 41 197 -26 43 -95 77 -223 109 -121 30 -164 52 -173 90
-17 67 50 116 156 116 85 0 138 -23 160 -70 12 -26 21 -32 48 -32 27 0 32 4
32 23 0 37 -46 93 -96 118 -51 24 -172 35 -229 20z"/>
<path d="M890 1699 c-14 -6 -37 -22 -52 -36 l-28 -27 0 32 c0 30 -2 32 -35 32
l-35 0 0 -230 0 -230 35 0 35 0 0 150 c0 164 9 206 52 234 39 26 82 30 121 11
58 -27 67 -60 67 -239 l0 -156 35 0 35 0 0 150 c0 164 9 206 52 234 39 26 82
30 121 11 58 -27 67 -60 67 -239 l0 -156 35 0 35 0 0 163 c0 185 -11 224 -74
272 -68 52 -175 40 -231 -26 l-25 -31 -27 33 c-45 53 -120 73 -183 48z"/>
<path d="M1726 1695 c-47 -17 -91 -57 -119 -110 -30 -56 -30 -173 1 -232 47
-91 146 -136 248 -114 33 8 65 23 84 41 l30 28 0 -34 c0 -32 2 -34 35 -34 l35
0 0 230 0 230 -35 0 c-33 0 -35 -2 -35 -32 l0 -31 -23 21 c-53 49 -143 65
-221 37z m174 -74 c50 -36 70 -79 70 -150 0 -117 -57 -175 -167 -169 -56 4
-67 8 -98 38 -96 93 -61 261 64 301 36 12 101 2 131 -20z"/>
<path d="M2375 1696 c-16 -7 -39 -23 -49 -35 -26 -29 -36 -26 -36 9 0 27 -3
30 -30 30 l-30 0 0 -230 0 -230 29 0 29 0 4 153 c4 181 13 207 85 239 56 25
101 18 146 -22 l32 -28 3 -171 3 -171 35 0 34 0 0 163 c0 172 -11 218 -56 259
-51 45 -140 60 -199 34z"/>
<path d="M2800 1285 l0 -45 45 0 45 0 0 45 0 45 -45 0 -45 0 0 -45z"/>
<path d="M2802 1038 c6 -18 28 -21 28 -4 0 9 -7 16 -16 16 -9 0 -14 -5 -12
-12z"/>
<path d="M2860 975 c0 -60 3 -75 15 -75 12 0 15 15 15 75 0 60 -3 75 -15 75
-12 0 -15 -15 -15 -75z"/>
<path d="M2930 975 c0 -43 4 -75 10 -75 6 0 10 32 10 75 0 43 -4 75 -10 75 -6
0 -10 -32 -10 -75z"/>
<path d="M1910 970 c0 -56 3 -70 15 -70 9 0 15 9 15 23 0 17 8 25 33 32 22 7
33 17 35 33 5 34 -15 52 -59 52 l-39 0 0 -70z m68 27 c2 -12 -3 -17 -17 -17
-15 0 -21 6 -21 21 0 25 33 22 38 -4z"/>
<path d="M2670 970 c0 -56 3 -70 15 -70 9 0 15 9 15 24 0 37 17 40 35 6 8 -16
22 -30 30 -30 20 0 19 6 -6 46 l-21 34 22 27 c32 42 2 44 -32 2 l-28 -33 0 32
c0 22 -5 32 -15 32 -12 0 -15 -14 -15 -70z"/>
<path d="M2040 955 c0 -42 3 -55 15 -55 11 0 15 11 15 39 0 30 4 40 20 44 22
6 28 27 7 27 -7 0 -18 -5 -25 -12 -9 -9 -12 -9 -12 0 0 7 -4 12 -10 12 -5 0
-10 -25 -10 -55z"/>
<path d="M2136 994 c-33 -33 -12 -94 32 -94 36 0 52 17 52 55 0 17 -5 36 -12
43 -17 17 -54 15 -72 -4z m49 -40 c0 -19 -5 -29 -15 -29 -16 0 -25 28 -16 51
10 25 31 10 31 -22z"/>
<path d="M2255 986 c-31 -47 9 -102 60 -82 22 8 18 28 -4 21 -27 -8 -45 25
-28 49 7 10 19 16 26 14 7 -2 16 3 18 10 3 8 -6 12 -26 12 -21 0 -35 -7 -46
-24z"/>
<path d="M2362 998 c-7 -7 -12 -26 -12 -43 0 -17 5 -36 12 -43 16 -16 78 -16
78 1 0 7 -11 13 -27 12 -14 0 -28 6 -30 13 -3 8 7 12 31 12 25 0 36 5 36 14 0
37 -61 61 -88 34z m53 -18 c3 -5 -3 -10 -15 -10 -12 0 -18 5 -15 10 3 6 10 10
15 10 5 0 12 -4 15 -10z"/>
<path d="M2469 994 c-11 -14 -8 -20 21 -45 l35 -30 -27 3 c-15 2 -28 -1 -30
-7 -5 -16 57 -18 71 -2 15 18 5 44 -20 52 -25 8 -25 29 1 22 13 -3 20 0 20 9
0 20 -54 18 -71 -2z"/>
<path d="M2569 994 c-11 -14 -8 -20 21 -45 l35 -30 -27 3 c-15 2 -28 -1 -30
-7 -5 -16 57 -18 71 -2 15 18 5 44 -20 52 -25 8 -25 29 1 22 13 -3 20 0 20 9
0 20 -54 18 -71 -2z"/>
<path d="M2800 955 c0 -42 3 -55 15 -55 12 0 15 13 15 55 0 42 -3 55 -15 55
-12 0 -15 -13 -15 -55z"/>
<path d="M2988 985 c-8 -18 -9 -35 -2 -53 8 -22 16 -28 47 -30 26 -2 37 1 37
10 0 8 -11 14 -27 13 -14 0 -28 6 -30 13 -3 8 7 12 31 12 20 0 36 5 36 11 0
51 -71 69 -92 24z m57 -5 c3 -5 -3 -10 -15 -10 -12 0 -18 5 -15 10 3 6 10 10
15 10 5 0 12 -4 15 -10z"/>
</g>
</svg>
